<svg width="165" height="163" viewBox="0 0 165 163" fill="none" xmlns="http://www.w3.org/2000/svg">
<path d="M0 82.2037H82.2037V162.402H9.00001C4.02945 162.402 0 158.373 0 153.402V82.2037Z" fill="#0568FD"/>
<path fill-rule="evenodd" clip-rule="evenodd" d="M41.1021 28.7713C56.9921 28.7713 69.8734 15.89 69.8734 9.53674e-06L82.2037 0V82.2037H0V0H12.3308C12.3308 3.17891e-06 12.3308 6.35783e-06 12.3308 9.53674e-06C12.3308 15.89 25.2122 28.7713 41.1021 28.7713Z" fill="#528990"/>
<path fill-rule="evenodd" clip-rule="evenodd" d="M135.636 123.306C135.636 139.196 148.517 152.077 164.407 152.077C164.407 152.077 164.407 152.077 164.407 152.077V162.352H82.2035V82.2037H164.407V94.5343C164.407 94.5343 164.407 94.5343 164.407 94.5343C148.517 94.5343 135.636 107.416 135.636 123.306Z" fill="#E7AA6D"/>
</svg>
