<svg width="91" height="85" viewBox="0 0 91 85" fill="none" xmlns="http://www.w3.org/2000/svg">
<path d="M55 36.6667V59.5834" stroke="#DA918F" stroke-width="4" stroke-linecap="round" stroke-linejoin="round"/>
<path d="M55 73.3333V73.3334" stroke="#DA918F" stroke-width="4" stroke-linecap="round" stroke-linejoin="round"/>
<path d="M95.9571 36.3738L73.6262 14.0429C73.4387 13.8554 73.1843 13.75 72.9191 13.75H37.0809C36.8157 13.75 36.5613 13.8554 36.3738 14.0429L14.0429 36.3738C13.8554 36.5613 13.75 36.8157 13.75 37.0809V72.9191C13.75 73.1843 13.8554 73.4387 14.0429 73.6262L36.3738 95.9571C36.5613 96.1446 36.8157 96.25 37.0809 96.25H72.9191C73.1843 96.25 73.4387 96.1446 73.6262 95.9571L95.9571 73.6262C96.1446 73.4387 96.25 73.1843 96.25 72.9191V37.0809C96.25 36.8157 96.1446 36.5613 95.9571 36.3738Z" stroke="#DA918F" stroke-width="4" stroke-linecap="round" stroke-linejoin="round"/>
</svg>
