<svg width="204" height="44" viewBox="0 0 204 44" fill="none" xmlns="http://www.w3.org/2000/svg">
<path d="M0 22.2717H22.2716V44.0001H6.94737C3.11044 44.0001 0 40.8897 0 37.0527V22.2717Z" fill="#0568FD"/>
<path fill-rule="evenodd" clip-rule="evenodd" d="M11.1358 7.79502C15.4409 7.79502 18.9309 4.30509 18.9309 0H22.2716V22.2716H0V0H3.34074C3.34074 4.30509 6.83071 7.79502 11.1358 7.79502Z" fill="#528990"/>
<path fill-rule="evenodd" clip-rule="evenodd" d="M36.748 33.4075C36.748 37.7126 40.238 41.2025 44.5431 41.2025V43.9865H22.2715V22.2717H44.5431V25.6124C40.238 25.6124 36.748 29.1024 36.748 33.4075Z" fill="#E7AA6D"/>
<path d="M67.6641 29.6914H69.4982V17.2417H67.6641V13.7402H76.1954C77.1217 13.7402 77.9369 13.8699 78.6409 14.1293C79.3634 14.3887 79.9655 14.7407 80.4472 15.1853C80.9474 15.6299 81.318 16.1672 81.5588 16.7971C81.8182 17.4084 81.9479 18.0754 81.9479 18.7979V19.1314C81.9479 20.243 81.6329 21.1322 81.003 21.7992C80.3916 22.4661 79.6135 22.9293 78.6687 23.1887V23.6889C79.6135 23.9482 80.3916 24.4207 81.003 25.1061C81.6329 25.7731 81.9479 26.6623 81.9479 27.7739V28.1074C81.9479 28.8299 81.8182 29.5061 81.5588 30.136C81.318 30.7474 80.9474 31.2847 80.4472 31.7478C79.9655 32.1924 79.3634 32.5444 78.6409 32.8038C77.9369 33.0632 77.1217 33.1929 76.1954 33.1929H67.6641V29.6914ZM73.1664 29.6914H75.8342C76.6123 29.6914 77.2422 29.5247 77.7239 29.1912C78.2055 28.8577 78.4464 28.3019 78.4464 27.5238V27.3571C78.4464 26.579 78.2055 26.0232 77.7239 25.6897C77.2422 25.3562 76.6123 25.1895 75.8342 25.1895H73.1664V29.6914ZM73.1664 21.688H75.8342C76.6123 21.688 77.2422 21.5306 77.7239 21.2156C78.2055 20.8821 78.4464 20.3263 78.4464 19.5482V19.3815C78.4464 18.6034 78.2055 18.0569 77.7239 17.7419C77.2422 17.4084 76.6123 17.2417 75.8342 17.2417H73.1664V21.688ZM88.6536 27.4404C88.6721 27.848 88.7648 28.2278 88.9315 28.5798C89.1168 28.9133 89.3576 29.2097 89.654 29.4691C89.969 29.7099 90.321 29.9044 90.71 30.0527C91.1176 30.1823 91.5437 30.2472 91.9883 30.2472C92.8591 30.2472 93.526 30.099 93.9892 29.8026C94.4523 29.4876 94.7858 29.1171 94.9896 28.691L97.9909 30.3583C97.8241 30.7103 97.5926 31.0809 97.2961 31.4699C96.9997 31.8404 96.6107 32.1832 96.129 32.4981C95.6658 32.8131 95.0915 33.0724 94.406 33.2762C93.7391 33.48 92.9517 33.5819 92.0439 33.5819C91.0064 33.5819 90.0616 33.4152 89.2094 33.0817C88.3572 32.7482 87.6161 32.2666 86.9862 31.6367C86.3749 31.0068 85.8932 30.2379 85.5412 29.3301C85.2077 28.4223 85.041 27.3941 85.041 26.2455V26.0788C85.041 25.0228 85.217 24.0594 85.569 23.1887C85.9395 22.3179 86.4397 21.5769 87.0696 20.9655C87.6995 20.3541 88.4313 19.8817 89.265 19.5482C90.1172 19.1962 91.025 19.0202 91.9883 19.0202C93.174 19.0202 94.193 19.2333 95.0452 19.6594C95.8974 20.067 96.6014 20.595 97.1572 21.2434C97.713 21.8733 98.1206 22.5773 98.3799 23.3554C98.6393 24.115 98.769 24.856 98.769 25.5786V27.4404H88.6536ZM91.9606 22.1882C91.0713 22.1882 90.3488 22.4198 89.793 22.883C89.2372 23.3276 88.8759 23.8463 88.7092 24.4392H95.2119C95.1008 23.7908 94.7488 23.2535 94.1559 22.8274C93.5816 22.4013 92.8498 22.1882 91.9606 22.1882ZM116.09 26.4678C116.09 27.6164 115.896 28.6354 115.507 29.5247C115.118 30.3954 114.59 31.1364 113.923 31.7478C113.256 32.3407 112.487 32.7945 111.616 33.1095C110.764 33.4244 109.865 33.5819 108.921 33.5819C107.976 33.5819 107.068 33.4244 106.197 33.1095C105.345 32.7945 104.585 32.3407 103.919 31.7478C103.252 31.1364 102.724 30.3954 102.335 29.5247C101.945 28.6354 101.751 27.6164 101.751 26.4678V26.1343C101.751 25.0042 101.945 24.0038 102.335 23.1331C102.724 22.2438 103.252 21.4935 103.919 20.8821C104.585 20.2708 105.345 19.8076 106.197 19.4927C107.068 19.1777 107.976 19.0202 108.921 19.0202C109.865 19.0202 110.764 19.1777 111.616 19.4927C112.487 19.8076 113.256 20.2708 113.923 20.8821C114.59 21.4935 115.118 22.2438 115.507 23.1331C115.896 24.0038 116.09 25.0042 116.09 26.1343V26.4678ZM108.921 30.2472C109.421 30.2472 109.893 30.1638 110.338 29.9971C110.783 29.8303 111.172 29.5895 111.505 29.2746C111.839 28.9596 112.098 28.5798 112.283 28.1352C112.487 27.672 112.589 27.1533 112.589 26.579V26.0232C112.589 25.4489 112.487 24.9394 112.283 24.4948C112.098 24.0316 111.839 23.6426 111.505 23.3276C111.172 23.0127 110.783 22.7718 110.338 22.6051C109.893 22.4383 109.421 22.355 108.921 22.355C108.42 22.355 107.948 22.4383 107.503 22.6051C107.059 22.7718 106.67 23.0127 106.336 23.3276C106.003 23.6426 105.734 24.0316 105.53 24.4948C105.345 24.9394 105.252 25.4489 105.252 26.0232V26.579C105.252 27.1533 105.345 27.672 105.53 28.1352C105.734 28.5798 106.003 28.9596 106.336 29.2746C106.67 29.5895 107.059 29.8303 107.503 29.9971C107.948 30.1638 108.42 30.2472 108.921 30.2472ZM118.711 13.7402H125.77C128.178 13.7402 129.966 14.3053 131.133 15.4354C132.3 16.547 132.884 18.2792 132.884 20.632V26.3011C132.884 28.6539 132.3 30.3954 131.133 31.5255C129.966 32.6371 128.178 33.1929 125.77 33.1929H118.711V29.6636H120.545V17.2417H118.711V13.7402ZM125.77 29.6914C127.048 29.6914 127.937 29.395 128.437 28.8021C128.956 28.1908 129.215 27.2459 129.215 25.9676V20.632C129.215 19.5204 128.956 18.6775 128.437 18.1032C127.937 17.5289 127.048 17.2417 125.77 17.2417H124.213V29.6914H125.77ZM139.701 27.4404C139.719 27.848 139.812 28.2278 139.978 28.5798C140.164 28.9133 140.405 29.2097 140.701 29.4691C141.016 29.7099 141.368 29.9044 141.757 30.0527C142.165 30.1823 142.591 30.2472 143.035 30.2472C143.906 30.2472 144.573 30.099 145.036 29.8026C145.499 29.4876 145.833 29.1171 146.037 28.691L149.038 30.3583C148.871 30.7103 148.639 31.0809 148.343 31.4699C148.047 31.8404 147.658 32.1832 147.176 32.4981C146.713 32.8131 146.138 33.0724 145.453 33.2762C144.786 33.48 143.999 33.5819 143.091 33.5819C142.053 33.5819 141.109 33.4152 140.256 33.0817C139.404 32.7482 138.663 32.2666 138.033 31.6367C137.422 31.0068 136.94 30.2379 136.588 29.3301C136.255 28.4223 136.088 27.3941 136.088 26.2455V26.0788C136.088 25.0228 136.264 24.0594 136.616 23.1887C136.986 22.3179 137.487 21.5769 138.117 20.9655C138.746 20.3541 139.478 19.8817 140.312 19.5482C141.164 19.1962 142.072 19.0202 143.035 19.0202C144.221 19.0202 145.24 19.2333 146.092 19.6594C146.944 20.067 147.648 20.595 148.204 21.2434C148.76 21.8733 149.168 22.5773 149.427 23.3554C149.686 24.115 149.816 24.856 149.816 25.5786V27.4404H139.701ZM143.007 22.1882C142.118 22.1882 141.396 22.4198 140.84 22.883C140.284 23.3276 139.923 23.8463 139.756 24.4392H146.259C146.148 23.7908 145.796 23.2535 145.203 22.8274C144.629 22.4013 143.897 22.1882 143.007 22.1882ZM158.022 23.2998C158.022 23.7444 158.254 24.0687 158.717 24.2724C159.18 24.4577 160.023 24.6152 161.246 24.7449C162.654 24.8931 163.803 25.3192 164.692 26.0232C165.581 26.7087 166.026 27.672 166.026 28.9133V29.08C166.026 30.451 165.525 31.544 164.525 32.3592C163.525 33.1743 162.117 33.5819 160.301 33.5819C159.227 33.5819 158.309 33.443 157.55 33.1651C156.79 32.8872 156.16 32.5444 155.66 32.1369C155.16 31.7108 154.771 31.2476 154.493 30.7474C154.234 30.2287 154.058 29.7284 153.965 29.2468L157.189 28.1908C157.337 28.7836 157.643 29.3023 158.106 29.747C158.587 30.1916 159.319 30.4139 160.301 30.4139C161.172 30.4139 161.765 30.2842 162.08 30.0249C162.413 29.747 162.58 29.4506 162.58 29.1356C162.58 28.9503 162.533 28.7836 162.441 28.6354C162.367 28.4687 162.219 28.3204 161.996 28.1908C161.774 28.0426 161.468 27.9221 161.079 27.8295C160.709 27.7369 160.236 27.6628 159.662 27.6072C158.106 27.4775 156.864 27.0792 155.938 26.4122C155.03 25.7268 154.576 24.7263 154.576 23.411V23.2442C154.576 22.5588 154.725 21.9567 155.021 21.4379C155.317 20.9192 155.707 20.4838 156.188 20.1318C156.67 19.7613 157.226 19.4834 157.856 19.2981C158.485 19.1129 159.134 19.0202 159.801 19.0202C160.672 19.0202 161.422 19.1314 162.052 19.3537C162.7 19.5575 163.247 19.8354 163.691 20.1874C164.136 20.5209 164.497 20.9007 164.775 21.3268C165.053 21.7343 165.266 22.1327 165.414 22.5217L162.246 23.8C162.08 23.2998 161.792 22.9108 161.385 22.6329C160.977 22.3364 160.449 22.1882 159.801 22.1882C159.208 22.1882 158.763 22.2994 158.467 22.5217C158.171 22.7255 158.022 22.9849 158.022 23.2998ZM175.26 24.467H175.927L179.595 19.4093H183.43V19.576L178.984 25.8842V26.3844L183.875 33.0261V33.1929H179.873L175.927 27.8017H175.26V33.1929H171.759V13.7402H175.26V24.467ZM192.054 23.2998C192.054 23.7444 192.285 24.0687 192.748 24.2724C193.212 24.4577 194.054 24.6152 195.277 24.7449C196.685 24.8931 197.834 25.3192 198.723 26.0232C199.612 26.7087 200.057 27.672 200.057 28.9133V29.08C200.057 30.451 199.557 31.544 198.556 32.3592C197.556 33.1743 196.148 33.5819 194.332 33.5819C193.258 33.5819 192.341 33.443 191.581 33.1651C190.822 32.8872 190.192 32.5444 189.691 32.1369C189.191 31.7108 188.802 31.2476 188.524 30.7474C188.265 30.2287 188.089 29.7284 187.996 29.2468L191.22 28.1908C191.368 28.7836 191.674 29.3023 192.137 29.747C192.619 30.1916 193.35 30.4139 194.332 30.4139C195.203 30.4139 195.796 30.2842 196.111 30.0249C196.444 29.747 196.611 29.4506 196.611 29.1356C196.611 28.9503 196.565 28.7836 196.472 28.6354C196.398 28.4687 196.25 28.3204 196.027 28.1908C195.805 28.0426 195.5 27.9221 195.11 27.8295C194.74 27.7369 194.268 27.6628 193.693 27.6072C192.137 27.4775 190.896 27.0792 189.969 26.4122C189.062 25.7268 188.608 24.7263 188.608 23.411V23.2442C188.608 22.5588 188.756 21.9567 189.052 21.4379C189.349 20.9192 189.738 20.4838 190.22 20.1318C190.701 19.7613 191.257 19.4834 191.887 19.2981C192.517 19.1129 193.165 19.0202 193.832 19.0202C194.703 19.0202 195.453 19.1314 196.083 19.3537C196.731 19.5575 197.278 19.8354 197.723 20.1874C198.167 20.5209 198.529 20.9007 198.806 21.3268C199.084 21.7343 199.297 22.1327 199.446 22.5217L196.278 23.8C196.111 23.2998 195.824 22.9108 195.416 22.6329C195.009 22.3364 194.481 22.1882 193.832 22.1882C193.239 22.1882 192.795 22.2994 192.498 22.5217C192.202 22.7255 192.054 22.9849 192.054 23.2998Z" fill="black"/>
</svg>
