<svg width="204" height="44" viewBox="0 0 204 44" fill="none" xmlns="http://www.w3.org/2000/svg">
<path d="M0 22H22.2716V43.7284H6.94737C3.11044 43.7284 0 40.6179 0 36.781V22Z" fill="#0568FD"/>
<path fill-rule="evenodd" clip-rule="evenodd" d="M11.1358 7.79502C15.4409 7.79502 18.9309 4.30509 18.9309 0H22.2716V22.2716H0V0H3.34074C3.34074 4.30509 6.83071 7.79502 11.1358 7.79502Z" fill="#528990"/>
<path fill-rule="evenodd" clip-rule="evenodd" d="M36.4765 33.1358C36.4765 37.4408 39.9664 40.9308 44.2716 40.9308V43.7148H22V22H44.2716V25.3407C39.9664 25.3407 36.4765 28.8307 36.4765 33.1358Z" fill="#E7AA6D"/>
<path d="M67.6643 29.6915H69.4984V17.2418H67.6643V13.7404H76.1957C77.122 13.7404 77.9371 13.8701 78.6411 14.1294C79.3637 14.3888 79.9658 14.7408 80.4475 15.1854C80.9477 15.6301 81.3182 16.1673 81.559 16.7972C81.8184 17.4086 81.9481 18.0755 81.9481 18.7981V19.1315C81.9481 20.2431 81.6331 21.1324 81.0033 21.7993C80.3919 22.4663 79.6138 22.9294 78.6689 23.1888V23.689C79.6138 23.9484 80.3919 24.4208 81.0033 25.1063C81.6331 25.7732 81.9481 26.6625 81.9481 27.7741V28.1075C81.9481 28.8301 81.8184 29.5063 81.559 30.1362C81.3182 30.7475 80.9477 31.2848 80.4475 31.7479C79.9658 32.1926 79.3637 32.5446 78.6411 32.8039C77.9371 33.0633 77.122 33.193 76.1957 33.193H67.6643V29.6915ZM73.1666 29.6915H75.8344C76.6125 29.6915 77.2424 29.5248 77.7241 29.1913C78.2058 28.8578 78.4466 28.3021 78.4466 27.5239V27.3572C78.4466 26.5791 78.2058 26.0233 77.7241 25.6898C77.2424 25.3564 76.6125 25.1896 75.8344 25.1896H73.1666V29.6915ZM73.1666 21.6882H75.8344C76.6125 21.6882 77.2424 21.5307 77.7241 21.2157C78.2058 20.8823 78.4466 20.3265 78.4466 19.5484V19.3816C78.4466 18.6035 78.2058 18.057 77.7241 17.7421C77.2424 17.4086 76.6125 17.2418 75.8344 17.2418H73.1666V21.6882ZM88.6539 27.4406C88.6724 27.8482 88.765 28.2279 88.9317 28.5799C89.117 28.9134 89.3578 29.2098 89.6543 29.4692C89.9692 29.7101 90.3212 29.9046 90.7103 30.0528C91.1179 30.1825 91.544 30.2473 91.9886 30.2473C92.8593 30.2473 93.5263 30.0991 93.9894 29.8027C94.4526 29.4877 94.7861 29.1172 94.9899 28.6911L97.9911 30.3585C97.8244 30.7105 97.5928 31.081 97.2964 31.4701C97 31.8406 96.6109 32.1833 96.1292 32.4983C95.6661 32.8132 95.0917 33.0726 94.4063 33.2764C93.7393 33.4802 92.952 33.5821 92.0442 33.5821C91.0067 33.5821 90.0619 33.4153 89.2096 33.0818C88.3574 32.7484 87.6164 32.2667 86.9865 31.6368C86.3751 31.0069 85.8934 30.2381 85.5414 29.3303C85.208 28.4225 85.0412 27.3943 85.0412 26.2456V26.0789C85.0412 25.0229 85.2172 24.0595 85.5692 23.1888C85.9397 22.3181 86.44 21.577 87.0698 20.9656C87.6997 20.3543 88.4315 19.8818 89.2652 19.5484C90.1174 19.1964 91.0252 19.0204 91.9886 19.0204C93.1743 19.0204 94.1932 19.2334 95.0454 19.6595C95.8976 20.0671 96.6016 20.5951 97.1574 21.2435C97.7132 21.8734 98.1208 22.5774 98.3802 23.3555C98.6395 24.1151 98.7692 24.8562 98.7692 25.5787V27.4406H88.6539ZM91.9608 22.1884C91.0715 22.1884 90.349 22.4199 89.7932 22.8831C89.2374 23.3277 88.8762 23.8465 88.7094 24.4393H95.2122C95.101 23.7909 94.749 23.2536 94.1562 22.8275C93.5819 22.4014 92.8501 22.1884 91.9608 22.1884ZM116.091 26.4679C116.091 27.6166 115.896 28.6355 115.507 29.5248C115.118 30.3955 114.59 31.1366 113.923 31.7479C113.256 32.3408 112.487 32.7947 111.616 33.1096C110.764 33.4246 109.866 33.5821 108.921 33.5821C107.976 33.5821 107.068 33.4246 106.198 33.1096C105.345 32.7947 104.586 32.3408 103.919 31.7479C103.252 31.1366 102.724 30.3955 102.335 29.5248C101.946 28.6355 101.751 27.6166 101.751 26.4679V26.1345C101.751 25.0044 101.946 24.004 102.335 23.1332C102.724 22.244 103.252 21.4936 103.919 20.8823C104.586 20.2709 105.345 19.8077 106.198 19.4928C107.068 19.1778 107.976 19.0204 108.921 19.0204C109.866 19.0204 110.764 19.1778 111.616 19.4928C112.487 19.8077 113.256 20.2709 113.923 20.8823C114.59 21.4936 115.118 22.244 115.507 23.1332C115.896 24.004 116.091 25.0044 116.091 26.1345V26.4679ZM108.921 30.2473C109.421 30.2473 109.894 30.1639 110.338 29.9972C110.783 29.8305 111.172 29.5896 111.505 29.2747C111.839 28.9597 112.098 28.58 112.283 28.1353C112.487 27.6722 112.589 27.1534 112.589 26.5791V26.0233C112.589 25.449 112.487 24.9395 112.283 24.4949C112.098 24.0317 111.839 23.6427 111.505 23.3277C111.172 23.0128 110.783 22.772 110.338 22.6052C109.894 22.4385 109.421 22.3551 108.921 22.3551C108.421 22.3551 107.948 22.4385 107.504 22.6052C107.059 22.772 106.67 23.0128 106.336 23.3277C106.003 23.6427 105.734 24.0317 105.531 24.4949C105.345 24.9395 105.253 25.449 105.253 26.0233V26.5791C105.253 27.1534 105.345 27.6722 105.531 28.1353C105.734 28.58 106.003 28.9597 106.336 29.2747C106.67 29.5896 107.059 29.8305 107.504 29.9972C107.948 30.1639 108.421 30.2473 108.921 30.2473ZM129.271 19.6873C129.271 18.9092 128.966 18.233 128.354 17.6587C127.761 17.0844 126.918 16.7972 125.825 16.7972C124.899 16.7972 124.167 16.9917 123.63 17.3808C123.093 17.7513 122.824 18.2608 122.824 18.9092C122.824 19.2427 122.889 19.5484 123.019 19.8263C123.148 20.0856 123.371 20.3265 123.686 20.5488C124.019 20.7526 124.445 20.9378 124.964 21.1046C125.501 21.2713 126.177 21.4288 126.993 21.577C129.03 21.9475 130.587 22.5682 131.661 23.4389C132.736 24.3096 133.273 25.5972 133.273 27.3016V27.6351C133.273 28.5429 133.106 29.3673 132.773 30.1084C132.458 30.8309 131.995 31.4515 131.383 31.9703C130.772 32.489 130.031 32.8873 129.16 33.1652C128.289 33.4431 127.307 33.5821 126.214 33.5821C124.936 33.5821 123.806 33.4061 122.824 33.0541C121.861 32.6835 121.055 32.1833 120.406 31.5534C119.758 30.905 119.267 30.1547 118.934 29.3025C118.6 28.4317 118.433 27.4869 118.433 26.4679V25.6343H122.102V26.3012C122.102 27.4684 122.435 28.4039 123.102 29.108C123.787 29.7934 124.843 30.1362 126.27 30.1362C127.382 30.1362 128.206 29.8953 128.743 29.4136C129.281 28.9319 129.549 28.3576 129.549 27.6907C129.549 27.3757 129.494 27.0793 129.382 26.8014C129.271 26.505 129.077 26.2456 128.799 26.0233C128.521 25.7825 128.141 25.5694 127.659 25.3842C127.178 25.1989 126.566 25.0414 125.825 24.9117C124.843 24.745 123.945 24.5319 123.13 24.2726C122.315 23.9947 121.601 23.6334 120.99 23.1888C120.397 22.7442 119.934 22.1884 119.601 21.5214C119.267 20.8545 119.1 20.0393 119.1 19.076V18.9092C119.1 18.1126 119.258 17.3808 119.573 16.7138C119.906 16.0284 120.36 15.4355 120.934 14.9353C121.527 14.4351 122.231 14.0461 123.046 13.7682C123.88 13.4903 124.806 13.3513 125.825 13.3513C126.974 13.3513 127.993 13.5181 128.882 13.8515C129.771 14.1665 130.513 14.6018 131.105 15.1576C131.717 15.7134 132.171 16.3526 132.467 17.0751C132.782 17.7976 132.939 18.5572 132.939 19.3538V20.3543H129.271V19.6873ZM139.701 27.4406C139.719 27.8482 139.812 28.2279 139.979 28.5799C140.164 28.9134 140.405 29.2098 140.701 29.4692C141.016 29.7101 141.368 29.9046 141.757 30.0528C142.165 30.1825 142.591 30.2473 143.036 30.2473C143.906 30.2473 144.573 30.0991 145.036 29.8027C145.5 29.4877 145.833 29.1172 146.037 28.6911L149.038 30.3585C148.871 30.7105 148.64 31.081 148.343 31.4701C148.047 31.8406 147.658 32.1833 147.176 32.4983C146.713 32.8132 146.139 33.0726 145.453 33.2764C144.786 33.4802 143.999 33.5821 143.091 33.5821C142.054 33.5821 141.109 33.4153 140.257 33.0818C139.404 32.7484 138.663 32.2667 138.033 31.6368C137.422 31.0069 136.94 30.2381 136.588 29.3303C136.255 28.4225 136.088 27.3943 136.088 26.2456V26.0789C136.088 25.0229 136.264 24.0595 136.616 23.1888C136.987 22.3181 137.487 21.577 138.117 20.9656C138.747 20.3543 139.478 19.8818 140.312 19.5484C141.164 19.1964 142.072 19.0204 143.036 19.0204C144.221 19.0204 145.24 19.2334 146.092 19.6595C146.945 20.0671 147.649 20.5951 148.204 21.2435C148.76 21.8734 149.168 22.5774 149.427 23.3555C149.686 24.1151 149.816 24.8562 149.816 25.5787V27.4406H139.701ZM143.008 22.1884C142.118 22.1884 141.396 22.4199 140.84 22.8831C140.284 23.3277 139.923 23.8465 139.756 24.4393H146.259C146.148 23.7909 145.796 23.2536 145.203 22.8275C144.629 22.4014 143.897 22.1884 143.008 22.1884ZM162.552 31.1922C162.182 32.0629 161.663 32.6835 160.996 33.0541C160.329 33.4061 159.551 33.5821 158.662 33.5821C157.828 33.5821 157.041 33.4246 156.3 33.1096C155.577 32.7947 154.938 32.3315 154.382 31.7202C153.826 31.1088 153.382 30.3677 153.048 29.497C152.733 28.6263 152.576 27.6351 152.576 26.5235V26.0789C152.576 24.9858 152.733 24.004 153.048 23.1332C153.363 22.2625 153.789 21.5214 154.327 20.9101C154.864 20.2987 155.484 19.8355 156.188 19.5206C156.911 19.1871 157.68 19.0204 158.495 19.0204C159.477 19.0204 160.264 19.1871 160.857 19.5206C161.468 19.8541 161.95 20.3728 162.302 21.0768H162.802V19.4094H166.304V29.0246C166.304 29.5804 166.554 29.8583 167.054 29.8583H167.582V33.193H165.192C164.562 33.193 164.044 33.0077 163.636 32.6372C163.247 32.2667 163.052 31.785 163.052 31.1922H162.552ZM159.44 30.2473C160.459 30.2473 161.274 29.9138 161.885 29.2469C162.497 28.5614 162.802 27.6351 162.802 26.4679V26.1345C162.802 24.9673 162.497 24.0503 161.885 23.3833C161.274 22.6978 160.459 22.3551 159.44 22.3551C158.421 22.3551 157.606 22.6978 156.994 23.3833C156.383 24.0503 156.077 24.9673 156.077 26.1345V26.4679C156.077 27.6351 156.383 28.5614 156.994 29.2469C157.606 29.9138 158.421 30.2473 159.44 30.2473ZM170.258 19.4094H174.343V13.7404H177.845V19.4094H182.819V22.7442H177.845V29.0246C177.845 29.5804 178.095 29.8583 178.595 29.8583H182.319V33.193H176.483C175.853 33.193 175.335 32.9892 174.927 32.5816C174.538 32.1741 174.343 31.6553 174.343 31.0254V22.7442H170.258V19.4094ZM192.054 23.2999C192.054 23.7446 192.285 24.0688 192.749 24.2726C193.212 24.4578 194.055 24.6153 195.277 24.745C196.685 24.8932 197.834 25.3193 198.723 26.0233C199.613 26.7088 200.057 27.6722 200.057 28.9134V29.0802C200.057 30.4511 199.557 31.5442 198.557 32.3593C197.556 33.1745 196.148 33.5821 194.333 33.5821C193.258 33.5821 192.341 33.4431 191.581 33.1652C190.822 32.8873 190.192 32.5446 189.692 32.137C189.192 31.7109 188.802 31.2477 188.525 30.7475C188.265 30.2288 188.089 29.7286 187.997 29.2469L191.22 28.1909C191.368 28.7837 191.674 29.3025 192.137 29.7471C192.619 30.1917 193.351 30.4141 194.333 30.4141C195.203 30.4141 195.796 30.2844 196.111 30.025C196.445 29.7471 196.611 29.4507 196.611 29.1357C196.611 28.9505 196.565 28.7837 196.472 28.6355C196.398 28.4688 196.25 28.3206 196.028 28.1909C195.805 28.0427 195.5 27.9223 195.111 27.8296C194.74 27.737 194.268 27.6629 193.693 27.6073C192.137 27.4776 190.896 27.0793 189.97 26.4124C189.062 25.7269 188.608 24.7265 188.608 23.4111V23.2444C188.608 22.5589 188.756 21.9568 189.053 21.4381C189.349 20.9193 189.738 20.484 190.22 20.1319C190.701 19.7614 191.257 19.4835 191.887 19.2983C192.517 19.113 193.165 19.0204 193.832 19.0204C194.703 19.0204 195.453 19.1315 196.083 19.3538C196.732 19.5576 197.278 19.8355 197.723 20.1875C198.168 20.521 198.529 20.9008 198.807 21.3269C199.085 21.7345 199.298 22.1328 199.446 22.5218L196.278 23.8002C196.111 23.3 195.824 22.9109 195.416 22.633C195.009 22.3366 194.481 22.1884 193.832 22.1884C193.24 22.1884 192.795 22.2995 192.498 22.5218C192.202 22.7256 192.054 22.985 192.054 23.2999Z" fill="black"/>
</svg>
