<svg width="12" height="12" viewBox="0 0 12 12" fill="none" xmlns="http://www.w3.org/2000/svg">
<path d="M6.66667 0.666667V2.44444C6.66667 2.62126 6.59643 2.79082 6.4714 2.91585C6.34638 3.04087 6.17681 3.11111 6 3.11111C5.82319 3.11111 5.65362 3.04087 5.5286 2.91585C5.40357 2.79082 5.33333 2.62126 5.33333 2.44444V0.666667C5.33333 0.489856 5.40357 0.320286 5.5286 0.195262C5.65362 0.0702379 5.82319 0 6 0C6.17681 0 6.34638 0.0702379 6.4714 0.195262C6.59643 0.320286 6.66667 0.489856 6.66667 0.666667ZM11.3333 5.33333H9.55556C9.37875 5.33333 9.20918 5.40357 9.08415 5.5286C8.95913 5.65362 8.88889 5.82319 8.88889 6C8.88889 6.17681 8.95913 6.34638 9.08415 6.4714C9.20918 6.59643 9.37875 6.66667 9.55556 6.66667H11.3333C11.5101 6.66667 11.6797 6.59643 11.8047 6.4714C11.9298 6.34638 12 6.17681 12 6C12 5.82319 11.9298 5.65362 11.8047 5.5286C11.6797 5.40357 11.5101 5.33333 11.3333 5.33333ZM8.98556 8.04278C8.86019 7.91944 8.69116 7.85063 8.51529 7.85134C8.33942 7.85206 8.17096 7.92224 8.0466 8.0466C7.92224 8.17096 7.85206 8.33942 7.85134 8.51529C7.85063 8.69116 7.91944 8.86019 8.04278 8.98556L9.29978 10.2426C9.42492 10.3671 9.5943 10.4368 9.7708 10.4366C9.9473 10.4364 10.1165 10.3662 10.2413 10.2414C10.3661 10.1166 10.4363 9.94736 10.4366 9.77087C10.4368 9.59437 10.3671 9.42498 10.2426 9.29983L8.98556 8.04278ZM6 8.88889C5.82319 8.88889 5.65362 8.95913 5.5286 9.08415C5.40357 9.20918 5.33333 9.37875 5.33333 9.55556V11.3333C5.33333 11.5101 5.40357 11.6797 5.5286 11.8047C5.65362 11.9298 5.82319 12 6 12C6.17681 12 6.34638 11.9298 6.4714 11.8047C6.59643 11.6797 6.66667 11.5101 6.66667 11.3333V9.55556C6.66667 9.37875 6.59643 9.20918 6.4714 9.08415C6.34638 8.95913 6.17681 8.88889 6 8.88889ZM3.01444 8.04278L1.75739 9.29978C1.63292 9.42492 1.56316 9.5943 1.56339 9.7708C1.56363 9.9473 1.63384 10.1165 1.75864 10.2413C1.88344 10.3661 2.05264 10.4363 2.22913 10.4366C2.40563 10.4368 2.57502 10.3671 2.70017 10.2426L3.95722 8.98556C4.08056 8.86019 4.14937 8.69116 4.14866 8.51529C4.14794 8.33942 4.07776 8.17096 3.9534 8.0466C3.82904 7.92224 3.66058 7.85206 3.48471 7.85134C3.30884 7.85063 3.13981 7.91944 3.01444 8.04278ZM3.11111 6C3.11111 5.82319 3.04087 5.65362 2.91585 5.5286C2.79082 5.40357 2.62126 5.33333 2.44444 5.33333H0.666667C0.489856 5.33333 0.320286 5.40357 0.195262 5.5286C0.0702379 5.65362 0 5.82319 0 6C0 6.17681 0.0702379 6.34638 0.195262 6.4714C0.320286 6.59643 0.489856 6.66667 0.666667 6.66667H2.44444C2.62126 6.66667 2.79082 6.59643 2.91585 6.4714C3.04087 6.34638 3.11111 6.17681 3.11111 6ZM2.70022 1.75739C2.57508 1.63292 2.4057 1.56316 2.2292 1.56339C2.0527 1.56363 1.8835 1.63384 1.7587 1.75864C1.63389 1.88344 1.56367 2.05264 1.56342 2.22913C1.56318 2.40563 1.63293 2.57502 1.75739 2.70017L3.01444 3.95722C3.13981 4.08056 3.30884 4.14937 3.48471 4.14866C3.66058 4.14794 3.82904 4.07776 3.9534 3.9534C4.07776 3.82904 4.14794 3.66058 4.14866 3.48471C4.14937 3.30884 4.08056 3.13981 3.95722 3.01444L2.70022 1.75739Z" fill="#93A4B7"/>
</svg>
