<svg width="344" height="283" viewBox="0 0 344 283" fill="none" xmlns="http://www.w3.org/2000/svg">
<path d="M90 82.2037H172.204V162.402H99C94.0294 162.402 90 158.373 90 153.402V82.2037Z" fill="#0568FD"/>
<path fill-rule="evenodd" clip-rule="evenodd" d="M131.102 28.7713C146.992 28.7713 159.873 15.89 159.873 9.53674e-06L172.204 0V82.2037H90V0H102.331C102.331 3.17891e-06 102.331 6.35783e-06 102.331 9.53674e-06C102.331 15.89 115.212 28.7713 131.102 28.7713Z" fill="#528990"/>
<path fill-rule="evenodd" clip-rule="evenodd" d="M225.636 123.306C225.636 139.196 238.517 152.077 254.407 152.077C254.407 152.077 254.407 152.077 254.407 152.077V162.352H172.204V82.2037H254.407V94.5343C254.407 94.5343 254.407 94.5343 254.407 94.5343C238.517 94.5343 225.636 107.416 225.636 123.306Z" fill="#E7AA6D"/>
<path d="M0 272.328H4.752V240.072H0V231H22.104C24.504 231 26.616 231.336 28.44 232.008C30.312 232.68 31.872 233.592 33.12 234.744C34.416 235.896 35.376 237.288 36 238.92C36.672 240.504 37.008 242.232 37.008 244.104V244.968C37.008 247.848 36.192 250.152 34.56 251.88C32.976 253.608 30.96 254.808 28.512 255.48V256.776C30.96 257.448 32.976 258.672 34.56 260.448C36.192 262.176 37.008 264.48 37.008 267.36V268.224C37.008 270.096 36.672 271.848 36 273.48C35.376 275.064 34.416 276.456 33.12 277.656C31.872 278.808 30.312 279.72 28.44 280.392C26.616 281.064 24.504 281.4 22.104 281.4H0V272.328ZM14.256 272.328H21.168C23.184 272.328 24.816 271.896 26.064 271.032C27.312 270.168 27.936 268.728 27.936 266.712V266.28C27.936 264.264 27.312 262.824 26.064 261.96C24.816 261.096 23.184 260.664 21.168 260.664H14.256V272.328ZM14.256 251.592H21.168C23.184 251.592 24.816 251.184 26.064 250.368C27.312 249.504 27.936 248.064 27.936 246.048V245.616C27.936 243.6 27.312 242.184 26.064 241.368C24.816 240.504 23.184 240.072 21.168 240.072H14.256V251.592Z" fill="black"/>
<path d="M54.3819 266.496C54.4299 267.552 54.6699 268.536 55.1019 269.448C55.5819 270.312 56.2059 271.08 56.9739 271.752C57.7899 272.376 58.7019 272.88 59.7099 273.264C60.7659 273.6 61.8699 273.768 63.0219 273.768C65.2779 273.768 67.0059 273.384 68.2059 272.616C69.4059 271.8 70.2699 270.84 70.7979 269.736L78.5739 274.056C78.1419 274.968 77.5419 275.928 76.7739 276.936C76.0059 277.896 74.9979 278.784 73.7499 279.6C72.5499 280.416 71.0619 281.088 69.2859 281.616C67.5579 282.144 65.5179 282.408 63.1659 282.408C60.4779 282.408 58.0299 281.976 55.8219 281.112C53.6139 280.248 51.6939 279 50.0619 277.368C48.4779 275.736 47.2299 273.744 46.3179 271.392C45.4539 269.04 45.0219 266.376 45.0219 263.4V262.968C45.0219 260.232 45.4779 257.736 46.3899 255.48C47.3499 253.224 48.6459 251.304 50.2779 249.72C51.9099 248.136 53.8059 246.912 55.9659 246.048C58.1739 245.136 60.5259 244.68 63.0219 244.68C66.0939 244.68 68.7339 245.232 70.9419 246.336C73.1499 247.392 74.9739 248.76 76.4139 250.44C77.8539 252.072 78.9099 253.896 79.5819 255.912C80.2539 257.88 80.5899 259.8 80.5899 261.672V266.496H54.3819ZM62.9499 252.888C60.6459 252.888 58.7739 253.488 57.3339 254.688C55.8939 255.84 54.9579 257.184 54.5259 258.72H71.3739C71.0859 257.04 70.1739 255.648 68.6379 254.544C67.1499 253.44 65.2539 252.888 62.9499 252.888Z" fill="black"/>
<path d="M125.468 263.976C125.468 266.952 124.964 269.592 123.956 271.896C122.948 274.152 121.58 276.072 119.852 277.656C118.124 279.192 116.132 280.368 113.876 281.184C111.668 282 109.34 282.408 106.892 282.408C104.444 282.408 102.092 282 99.8359 281.184C97.6279 280.368 95.6599 279.192 93.9319 277.656C92.2039 276.072 90.8359 274.152 89.8279 271.896C88.8199 269.592 88.3159 266.952 88.3159 263.976V263.112C88.3159 260.184 88.8199 257.592 89.8279 255.336C90.8359 253.032 92.2039 251.088 93.9319 249.504C95.6599 247.92 97.6279 246.72 99.8359 245.904C102.092 245.088 104.444 244.68 106.892 244.68C109.34 244.68 111.668 245.088 113.876 245.904C116.132 246.72 118.124 247.92 119.852 249.504C121.58 251.088 122.948 253.032 123.956 255.336C124.964 257.592 125.468 260.184 125.468 263.112V263.976ZM106.892 273.768C108.188 273.768 109.412 273.552 110.564 273.12C111.716 272.688 112.724 272.064 113.588 271.248C114.452 270.432 115.124 269.448 115.604 268.296C116.132 267.096 116.396 265.752 116.396 264.264V262.824C116.396 261.336 116.132 260.016 115.604 258.864C115.124 257.664 114.452 256.656 113.588 255.84C112.724 255.024 111.716 254.4 110.564 253.968C109.412 253.536 108.188 253.32 106.892 253.32C105.596 253.32 104.372 253.536 103.22 253.968C102.068 254.4 101.06 255.024 100.196 255.84C99.3319 256.656 98.6359 257.664 98.1079 258.864C97.6279 260.016 97.3879 261.336 97.3879 262.824V264.264C97.3879 265.752 97.6279 267.096 98.1079 268.296C98.6359 269.448 99.3319 270.432 100.196 271.248C101.06 272.064 102.068 272.688 103.22 273.12C104.372 273.552 105.596 273.768 106.892 273.768Z" fill="black"/>
<path d="M132.258 231H150.546C156.786 231 161.418 232.464 164.442 235.392C167.466 238.272 168.978 242.76 168.978 248.856V263.544C168.978 269.64 167.466 274.152 164.442 277.08C161.418 279.96 156.786 281.4 150.546 281.4H132.258V272.256H137.01V240.072H132.258V231ZM150.546 272.328C153.858 272.328 156.162 271.56 157.458 270.024C158.802 268.44 159.474 265.992 159.474 262.68V248.856C159.474 245.976 158.802 243.792 157.458 242.304C156.162 240.816 153.858 240.072 150.546 240.072H146.514V272.328H150.546Z" fill="black"/>
<path d="M186.64 266.496C186.688 267.552 186.928 268.536 187.36 269.448C187.84 270.312 188.464 271.08 189.232 271.752C190.048 272.376 190.96 272.88 191.968 273.264C193.024 273.6 194.128 273.768 195.28 273.768C197.536 273.768 199.264 273.384 200.464 272.616C201.664 271.8 202.528 270.84 203.056 269.736L210.832 274.056C210.4 274.968 209.8 275.928 209.032 276.936C208.264 277.896 207.256 278.784 206.008 279.6C204.808 280.416 203.32 281.088 201.544 281.616C199.816 282.144 197.776 282.408 195.424 282.408C192.736 282.408 190.288 281.976 188.08 281.112C185.872 280.248 183.952 279 182.32 277.368C180.736 275.736 179.488 273.744 178.576 271.392C177.712 269.04 177.28 266.376 177.28 263.4V262.968C177.28 260.232 177.736 257.736 178.648 255.48C179.608 253.224 180.904 251.304 182.536 249.72C184.168 248.136 186.064 246.912 188.224 246.048C190.432 245.136 192.784 244.68 195.28 244.68C198.352 244.68 200.992 245.232 203.2 246.336C205.408 247.392 207.232 248.76 208.672 250.44C210.112 252.072 211.168 253.896 211.84 255.912C212.512 257.88 212.848 259.8 212.848 261.672V266.496H186.64ZM195.208 252.888C192.904 252.888 191.032 253.488 189.592 254.688C188.152 255.84 187.216 257.184 186.784 258.72H203.632C203.344 257.04 202.432 255.648 200.896 254.544C199.408 253.44 197.512 252.888 195.208 252.888Z" fill="black"/>
<path d="M234.11 255.768C234.11 256.92 234.71 257.76 235.91 258.288C237.11 258.768 239.294 259.176 242.462 259.512C246.11 259.896 249.086 261 251.39 262.824C253.694 264.6 254.846 267.096 254.846 270.312V270.744C254.846 274.296 253.55 277.128 250.958 279.24C248.366 281.352 244.718 282.408 240.014 282.408C237.23 282.408 234.854 282.048 232.886 281.328C230.918 280.608 229.286 279.72 227.99 278.664C226.694 277.56 225.686 276.36 224.966 275.064C224.294 273.72 223.838 272.424 223.598 271.176L231.95 268.44C232.334 269.976 233.126 271.32 234.326 272.472C235.574 273.624 237.47 274.2 240.014 274.2C242.27 274.2 243.806 273.864 244.622 273.192C245.486 272.472 245.918 271.704 245.918 270.888C245.918 270.408 245.798 269.976 245.558 269.592C245.366 269.16 244.982 268.776 244.406 268.44C243.83 268.056 243.038 267.744 242.03 267.504C241.07 267.264 239.846 267.072 238.358 266.928C234.326 266.592 231.11 265.56 228.71 263.832C226.358 262.056 225.182 259.464 225.182 256.056V255.624C225.182 253.848 225.566 252.288 226.334 250.944C227.102 249.6 228.11 248.472 229.358 247.56C230.606 246.6 232.046 245.88 233.678 245.4C235.31 244.92 236.99 244.68 238.718 244.68C240.974 244.68 242.918 244.968 244.55 245.544C246.23 246.072 247.646 246.792 248.798 247.704C249.95 248.568 250.886 249.552 251.606 250.656C252.326 251.712 252.878 252.744 253.262 253.752L245.054 257.064C244.622 255.768 243.878 254.76 242.822 254.04C241.766 253.272 240.398 252.888 238.718 252.888C237.182 252.888 236.03 253.176 235.262 253.752C234.494 254.28 234.11 254.952 234.11 255.768Z" fill="black"/>
<path d="M278.772 258.792H280.5L290.004 245.688H299.94V246.12L288.42 262.464V263.76L301.092 280.968V281.4H290.724L280.5 267.432H278.772V281.4H269.7V231H278.772V258.792Z" fill="black"/>
<path d="M322.282 255.768C322.282 256.92 322.882 257.76 324.082 258.288C325.282 258.768 327.466 259.176 330.634 259.512C334.282 259.896 337.258 261 339.562 262.824C341.866 264.6 343.018 267.096 343.018 270.312V270.744C343.018 274.296 341.722 277.128 339.13 279.24C336.538 281.352 332.89 282.408 328.186 282.408C325.402 282.408 323.026 282.048 321.058 281.328C319.09 280.608 317.458 279.72 316.162 278.664C314.866 277.56 313.858 276.36 313.138 275.064C312.466 273.72 312.01 272.424 311.77 271.176L320.122 268.44C320.506 269.976 321.298 271.32 322.498 272.472C323.746 273.624 325.642 274.2 328.186 274.2C330.442 274.2 331.978 273.864 332.794 273.192C333.658 272.472 334.09 271.704 334.09 270.888C334.09 270.408 333.97 269.976 333.73 269.592C333.538 269.16 333.154 268.776 332.578 268.44C332.002 268.056 331.21 267.744 330.202 267.504C329.242 267.264 328.018 267.072 326.53 266.928C322.498 266.592 319.282 265.56 316.882 263.832C314.53 262.056 313.354 259.464 313.354 256.056V255.624C313.354 253.848 313.738 252.288 314.506 250.944C315.274 249.6 316.282 248.472 317.53 247.56C318.778 246.6 320.218 245.88 321.85 245.4C323.482 244.92 325.162 244.68 326.89 244.68C329.146 244.68 331.09 244.968 332.722 245.544C334.402 246.072 335.818 246.792 336.97 247.704C338.122 248.568 339.058 249.552 339.778 250.656C340.498 251.712 341.05 252.744 341.434 253.752L333.226 257.064C332.794 255.768 332.05 254.76 330.994 254.04C329.938 253.272 328.57 252.888 326.89 252.888C325.354 252.888 324.202 253.176 323.434 253.752C322.666 254.28 322.282 254.952 322.282 255.768Z" fill="black"/>
</svg>
