<svg width="24" height="24" viewBox="0 0 24 24" fill="none" xmlns="http://www.w3.org/2000/svg">
<path d="M17 9L13.2494 12.0005C12.519 12.5848 11.481 12.5848 10.7506 12.0005L7 9M11 19L5 19C3.89543 19 3 18.1046 3 17L3 7C3 5.89543 3.89543 5 5 5L19 5C20.1046 5 21 5.89543 21 7L21 12" stroke="#93A4B7" stroke-width="2" stroke-linecap="round" stroke-linejoin="round"/>
<path d="M22 17C22 18.2 19.3333 20.8333 18 22C16.6667 20.8333 14 18.2 14 17C14 16.3333 14.4 15 16 15C17.6 15 18 16.3333 18 17C18 16.3333 18.4 15 20 15C21.6 15 22 16.3333 22 17Z" stroke="#93A4B7" stroke-width="2" stroke-linecap="round" stroke-linejoin="round"/>
</svg>
