<svg width="32" height="32" viewBox="0 0 32 32" fill="none" xmlns="http://www.w3.org/2000/svg">
<path d="M10.6667 20H16.6667C17.7713 20 18.6667 19.1046 18.6667 18V10C18.6667 8.89543 17.7713 8 16.6667 8L4.66669 8C3.56212 8 2.66669 8.89543 2.66669 10L2.66669 18C2.66669 19.1046 3.56212 20 4.66669 20H10.6667ZM10.6667 20L10.6667 24M10.6667 24L14.6667 24M10.6667 24H6.66669" stroke="black" stroke-width="2" stroke-linecap="round" stroke-linejoin="round"/>
<path d="M22.6667 8H24H27.3333C28.4379 8 29.3333 8.89543 29.3333 10V22C29.3333 23.1046 28.4379 24 27.3333 24H24H20M22.6667 16H25.3333M22.6667 12H25.3333" stroke="black" stroke-width="2" stroke-linecap="round" stroke-linejoin="round"/>
</svg>
