<svg width="54" height="54" viewBox="0 0 54 54" fill="none" xmlns="http://www.w3.org/2000/svg">
<rect width="54" height="54" rx="27" fill="white"/>
<path d="M37.5378 23.0608C37.5378 20.3819 36.4252 17.8127 34.4448 15.9184C32.4645 14.0242 29.7785 12.96 26.9778 12.96C24.1771 12.96 21.4911 14.0242 19.5107 15.9184C17.5304 17.8127 16.4178 20.3819 16.4178 23.0608C16.4178 31.6057 12.8846 35.7249 10.942 37.3439C10.6503 37.587 10.8402 38.2121 11.22 38.2121H20.5297C20.6981 38.2121 20.8444 38.3261 20.8941 38.487C21.2165 39.5322 22.6559 43.2 26.9778 43.2C31.2997 43.2 32.7391 39.5322 33.0615 38.487C33.1111 38.3261 33.2575 38.2121 33.4259 38.2121H42.7356C43.1153 38.2121 43.3052 37.587 43.0135 37.3439C41.071 35.7249 37.5378 31.6057 37.5378 23.0608Z" fill="#E7AA6D" stroke="black" stroke-width="2" stroke-linecap="round" stroke-linejoin="round"/>
</svg>
