<svg width="78" height="71" viewBox="0 0 78 71" fill="none" xmlns="http://www.w3.org/2000/svg">
<path d="M33.7856 40.0356C33.7856 43.4874 30.9874 46.2856 27.5356 46.2856C24.0839 46.2856 21.2856 43.4874 21.2856 40.0356C21.2856 36.5839 24.0839 33.7856 27.5356 33.7856C30.9874 33.7856 33.7856 36.5839 33.7856 40.0356Z" stroke="#0568FD" stroke-width="4" stroke-linecap="round" stroke-linejoin="round"/>
<path d="M52.5356 33.7856C49.0839 33.7856 46.2856 30.9874 46.2856 27.5356C46.2856 24.0839 49.0839 21.2856 52.5356 21.2856C55.9874 21.2856 58.7856 24.0839 58.7856 27.5356C58.7856 30.9874 55.9874 33.7856 52.5356 33.7856Z" stroke="#0568FD" stroke-width="4" stroke-linecap="round" stroke-linejoin="round"/>
<path d="M52.5356 58.7856C49.0839 58.7856 46.2856 55.9874 46.2856 52.5356C46.2856 49.0839 49.0839 46.2856 52.5356 46.2856C55.9874 46.2856 58.7856 49.0839 58.7856 52.5356C58.7856 55.9874 55.9874 58.7856 52.5356 58.7856Z" stroke="#0568FD" stroke-width="4" stroke-linecap="round" stroke-linejoin="round"/>
<path d="M33.7856 36.9106L46.2856 30.6606" stroke="#0568FD" stroke-width="4" stroke-linecap="round" stroke-linejoin="round"/>
<path d="M46.2856 50.4521L33.7856 44.2021" stroke="#0568FD" stroke-width="4" stroke-linecap="round" stroke-linejoin="round"/>
<rect x="2" y="2" width="75" height="75" rx="1" stroke="#0568FD" stroke-width="4"/>
</svg>
