<svg width="700" height="1024" viewBox="0 0 700 1024" fill="none" xmlns="http://www.w3.org/2000/svg">
<g clip-path="url(#clip0_475_242)">
<mask id="path-1-inside-1_475_242" fill="white">
<path d="M0 0H700V1024H0V0Z"/>
</mask>
<path d="M0 0H700V1024H0V0Z" fill="#FAE6E9"/>
<line x1="-162" y1="991" x2="862" y2="991" stroke="white" stroke-width="2"/>
<line x1="-162" y1="931" x2="862" y2="931" stroke="white" stroke-width="2"/>
<line x1="-162" y1="871" x2="862" y2="871" stroke="white" stroke-width="2"/>
<line x1="-162" y1="811" x2="862" y2="811" stroke="white" stroke-width="2"/>
<line x1="-162" y1="751" x2="862" y2="751" stroke="white" stroke-width="2"/>
<line x1="-162" y1="691" x2="862" y2="691" stroke="white" stroke-width="2"/>
<line x1="-162" y1="631" x2="862" y2="631" stroke="white" stroke-width="2"/>
<line x1="-162" y1="571" x2="862" y2="571" stroke="white" stroke-width="2"/>
<line x1="-162" y1="511" x2="862" y2="511" stroke="white" stroke-width="2"/>
<line x1="-162" y1="451" x2="862" y2="451" stroke="white" stroke-width="2"/>
<line x1="-162" y1="391" x2="862" y2="391" stroke="white" stroke-width="2"/>
<line x1="-162" y1="331" x2="862" y2="331" stroke="white" stroke-width="2"/>
<line x1="-162" y1="271" x2="862" y2="271" stroke="white" stroke-width="2"/>
<line x1="-162" y1="211" x2="862" y2="211" stroke="white" stroke-width="2"/>
<line x1="-162" y1="151" x2="862" y2="151" stroke="white" stroke-width="2"/>
<line x1="-162" y1="91" x2="862" y2="91" stroke="white" stroke-width="2"/>
<line x1="-162" y1="31" x2="862" y2="31" stroke="white" stroke-width="2"/>
<line x1="51" y1="-4.37114e-08" x2="51" y2="1024" stroke="white" stroke-width="2"/>
<line x1="111" y1="-4.37114e-08" x2="111" y2="1024" stroke="white" stroke-width="2"/>
<line x1="171" y1="-4.37114e-08" x2="171" y2="1024" stroke="white" stroke-width="2"/>
<line x1="231" y1="-4.37114e-08" x2="231" y2="1024" stroke="white" stroke-width="2"/>
<line x1="291" y1="-4.37114e-08" x2="291" y2="1024" stroke="white" stroke-width="2"/>
<line x1="351" y1="-4.37114e-08" x2="351" y2="1024" stroke="white" stroke-width="2"/>
<line x1="411" y1="-4.37114e-08" x2="411" y2="1024" stroke="white" stroke-width="2"/>
<line x1="471" y1="-4.37114e-08" x2="471" y2="1024" stroke="white" stroke-width="2"/>
<line x1="531" y1="-4.37114e-08" x2="531" y2="1024" stroke="white" stroke-width="2"/>
<line x1="591" y1="-4.37114e-08" x2="591" y2="1024" stroke="white" stroke-width="2"/>
<line x1="651" y1="-4.37114e-08" x2="651" y2="1024" stroke="white" stroke-width="2"/>
<path d="M268 393.204H350.204V473.402H277C272.029 473.402 268 469.373 268 464.402V393.204Z" fill="#0568FD"/>
<path fill-rule="evenodd" clip-rule="evenodd" d="M309.102 339.771C324.992 339.771 337.873 326.89 337.873 311L350.204 311V393.204H268V311H280.331C280.331 311 280.331 311 280.331 311C280.331 326.89 293.212 339.771 309.102 339.771Z" fill="#528990"/>
<path fill-rule="evenodd" clip-rule="evenodd" d="M403.636 434.306C403.636 450.196 416.517 463.077 432.407 463.077C432.407 463.077 432.407 463.077 432.407 463.077V473.352H350.204V393.204H432.407V405.534C432.407 405.534 432.407 405.534 432.407 405.534C416.517 405.534 403.636 418.416 403.636 434.306Z" fill="#E7AA6D"/>
<path d="M178 583.328H182.752V551.072H178V542H200.104C202.504 542 204.616 542.336 206.44 543.008C208.312 543.68 209.872 544.592 211.12 545.744C212.416 546.896 213.376 548.288 214 549.92C214.672 551.504 215.008 553.232 215.008 555.104V555.968C215.008 558.848 214.192 561.152 212.56 562.88C210.976 564.608 208.96 565.808 206.512 566.48V567.776C208.96 568.448 210.976 569.672 212.56 571.448C214.192 573.176 215.008 575.48 215.008 578.36V579.224C215.008 581.096 214.672 582.848 214 584.48C213.376 586.064 212.416 587.456 211.12 588.656C209.872 589.808 208.312 590.72 206.44 591.392C204.616 592.064 202.504 592.4 200.104 592.4H178V583.328ZM192.256 583.328H199.168C201.184 583.328 202.816 582.896 204.064 582.032C205.312 581.168 205.936 579.728 205.936 577.712V577.28C205.936 575.264 205.312 573.824 204.064 572.96C202.816 572.096 201.184 571.664 199.168 571.664H192.256V583.328ZM192.256 562.592H199.168C201.184 562.592 202.816 562.184 204.064 561.368C205.312 560.504 205.936 559.064 205.936 557.048V556.616C205.936 554.6 205.312 553.184 204.064 552.368C202.816 551.504 201.184 551.072 199.168 551.072H192.256V562.592Z" fill="black"/>
<path d="M232.382 577.496C232.43 578.552 232.67 579.536 233.102 580.448C233.582 581.312 234.206 582.08 234.974 582.752C235.79 583.376 236.702 583.88 237.71 584.264C238.766 584.6 239.87 584.768 241.022 584.768C243.278 584.768 245.006 584.384 246.206 583.616C247.406 582.8 248.27 581.84 248.798 580.736L256.574 585.056C256.142 585.968 255.542 586.928 254.774 587.936C254.006 588.896 252.998 589.784 251.75 590.6C250.55 591.416 249.062 592.088 247.286 592.616C245.558 593.144 243.518 593.408 241.166 593.408C238.478 593.408 236.03 592.976 233.822 592.112C231.614 591.248 229.694 590 228.062 588.368C226.478 586.736 225.23 584.744 224.318 582.392C223.454 580.04 223.022 577.376 223.022 574.4V573.968C223.022 571.232 223.478 568.736 224.39 566.48C225.35 564.224 226.646 562.304 228.278 560.72C229.91 559.136 231.806 557.912 233.966 557.048C236.174 556.136 238.526 555.68 241.022 555.68C244.094 555.68 246.734 556.232 248.942 557.336C251.15 558.392 252.974 559.76 254.414 561.44C255.854 563.072 256.91 564.896 257.582 566.912C258.254 568.88 258.59 570.8 258.59 572.672V577.496H232.382ZM240.95 563.888C238.646 563.888 236.774 564.488 235.334 565.688C233.894 566.84 232.958 568.184 232.526 569.72H249.374C249.086 568.04 248.174 566.648 246.638 565.544C245.15 564.44 243.254 563.888 240.95 563.888Z" fill="black"/>
<path d="M303.468 574.976C303.468 577.952 302.964 580.592 301.956 582.896C300.948 585.152 299.58 587.072 297.852 588.656C296.124 590.192 294.132 591.368 291.876 592.184C289.668 593 287.34 593.408 284.892 593.408C282.444 593.408 280.092 593 277.836 592.184C275.628 591.368 273.66 590.192 271.932 588.656C270.204 587.072 268.836 585.152 267.828 582.896C266.82 580.592 266.316 577.952 266.316 574.976V574.112C266.316 571.184 266.82 568.592 267.828 566.336C268.836 564.032 270.204 562.088 271.932 560.504C273.66 558.92 275.628 557.72 277.836 556.904C280.092 556.088 282.444 555.68 284.892 555.68C287.34 555.68 289.668 556.088 291.876 556.904C294.132 557.72 296.124 558.92 297.852 560.504C299.58 562.088 300.948 564.032 301.956 566.336C302.964 568.592 303.468 571.184 303.468 574.112V574.976ZM284.892 584.768C286.188 584.768 287.412 584.552 288.564 584.12C289.716 583.688 290.724 583.064 291.588 582.248C292.452 581.432 293.124 580.448 293.604 579.296C294.132 578.096 294.396 576.752 294.396 575.264V573.824C294.396 572.336 294.132 571.016 293.604 569.864C293.124 568.664 292.452 567.656 291.588 566.84C290.724 566.024 289.716 565.4 288.564 564.968C287.412 564.536 286.188 564.32 284.892 564.32C283.596 564.32 282.372 564.536 281.22 564.968C280.068 565.4 279.06 566.024 278.196 566.84C277.332 567.656 276.636 568.664 276.108 569.864C275.628 571.016 275.388 572.336 275.388 573.824V575.264C275.388 576.752 275.628 578.096 276.108 579.296C276.636 580.448 277.332 581.432 278.196 582.248C279.06 583.064 280.068 583.688 281.22 584.12C282.372 584.552 283.596 584.768 284.892 584.768Z" fill="black"/>
<path d="M310.258 542H328.546C334.786 542 339.418 543.464 342.442 546.392C345.466 549.272 346.978 553.76 346.978 559.856V574.544C346.978 580.64 345.466 585.152 342.442 588.08C339.418 590.96 334.786 592.4 328.546 592.4H310.258V583.256H315.01V551.072H310.258V542ZM328.546 583.328C331.858 583.328 334.162 582.56 335.458 581.024C336.802 579.44 337.474 576.992 337.474 573.68V559.856C337.474 556.976 336.802 554.792 335.458 553.304C334.162 551.816 331.858 551.072 328.546 551.072H324.514V583.328H328.546Z" fill="black"/>
<path d="M364.64 577.496C364.688 578.552 364.928 579.536 365.36 580.448C365.84 581.312 366.464 582.08 367.232 582.752C368.048 583.376 368.96 583.88 369.968 584.264C371.024 584.6 372.128 584.768 373.28 584.768C375.536 584.768 377.264 584.384 378.464 583.616C379.664 582.8 380.528 581.84 381.056 580.736L388.832 585.056C388.4 585.968 387.8 586.928 387.032 587.936C386.264 588.896 385.256 589.784 384.008 590.6C382.808 591.416 381.32 592.088 379.544 592.616C377.816 593.144 375.776 593.408 373.424 593.408C370.736 593.408 368.288 592.976 366.08 592.112C363.872 591.248 361.952 590 360.32 588.368C358.736 586.736 357.488 584.744 356.576 582.392C355.712 580.04 355.28 577.376 355.28 574.4V573.968C355.28 571.232 355.736 568.736 356.648 566.48C357.608 564.224 358.904 562.304 360.536 560.72C362.168 559.136 364.064 557.912 366.224 557.048C368.432 556.136 370.784 555.68 373.28 555.68C376.352 555.68 378.992 556.232 381.2 557.336C383.408 558.392 385.232 559.76 386.672 561.44C388.112 563.072 389.168 564.896 389.84 566.912C390.512 568.88 390.848 570.8 390.848 572.672V577.496H364.64ZM373.208 563.888C370.904 563.888 369.032 564.488 367.592 565.688C366.152 566.84 365.216 568.184 364.784 569.72H381.632C381.344 568.04 380.432 566.648 378.896 565.544C377.408 564.44 375.512 563.888 373.208 563.888Z" fill="black"/>
<path d="M412.11 566.768C412.11 567.92 412.71 568.76 413.91 569.288C415.11 569.768 417.294 570.176 420.462 570.512C424.11 570.896 427.086 572 429.39 573.824C431.694 575.6 432.846 578.096 432.846 581.312V581.744C432.846 585.296 431.55 588.128 428.958 590.24C426.366 592.352 422.718 593.408 418.014 593.408C415.23 593.408 412.854 593.048 410.886 592.328C408.918 591.608 407.286 590.72 405.99 589.664C404.694 588.56 403.686 587.36 402.966 586.064C402.294 584.72 401.838 583.424 401.598 582.176L409.95 579.44C410.334 580.976 411.126 582.32 412.326 583.472C413.574 584.624 415.47 585.2 418.014 585.2C420.27 585.2 421.806 584.864 422.622 584.192C423.486 583.472 423.918 582.704 423.918 581.888C423.918 581.408 423.798 580.976 423.558 580.592C423.366 580.16 422.982 579.776 422.406 579.44C421.83 579.056 421.038 578.744 420.03 578.504C419.07 578.264 417.846 578.072 416.358 577.928C412.326 577.592 409.11 576.56 406.71 574.832C404.358 573.056 403.182 570.464 403.182 567.056V566.624C403.182 564.848 403.566 563.288 404.334 561.944C405.102 560.6 406.11 559.472 407.358 558.56C408.606 557.6 410.046 556.88 411.678 556.4C413.31 555.92 414.99 555.68 416.718 555.68C418.974 555.68 420.918 555.968 422.55 556.544C424.23 557.072 425.646 557.792 426.798 558.704C427.95 559.568 428.886 560.552 429.606 561.656C430.326 562.712 430.878 563.744 431.262 564.752L423.054 568.064C422.622 566.768 421.878 565.76 420.822 565.04C419.766 564.272 418.398 563.888 416.718 563.888C415.182 563.888 414.03 564.176 413.262 564.752C412.494 565.28 412.11 565.952 412.11 566.768Z" fill="black"/>
<path d="M456.772 569.792H458.5L468.004 556.688H477.94V557.12L466.42 573.464V574.76L479.092 591.968V592.4H468.724L458.5 578.432H456.772V592.4H447.7V542H456.772V569.792Z" fill="black"/>
<path d="M500.282 566.768C500.282 567.92 500.882 568.76 502.082 569.288C503.282 569.768 505.466 570.176 508.634 570.512C512.282 570.896 515.258 572 517.562 573.824C519.866 575.6 521.018 578.096 521.018 581.312V581.744C521.018 585.296 519.722 588.128 517.13 590.24C514.538 592.352 510.89 593.408 506.186 593.408C503.402 593.408 501.026 593.048 499.058 592.328C497.09 591.608 495.458 590.72 494.162 589.664C492.866 588.56 491.858 587.36 491.138 586.064C490.466 584.72 490.01 583.424 489.77 582.176L498.122 579.44C498.506 580.976 499.298 582.32 500.498 583.472C501.746 584.624 503.642 585.2 506.186 585.2C508.442 585.2 509.978 584.864 510.794 584.192C511.658 583.472 512.09 582.704 512.09 581.888C512.09 581.408 511.97 580.976 511.73 580.592C511.538 580.16 511.154 579.776 510.578 579.44C510.002 579.056 509.21 578.744 508.202 578.504C507.242 578.264 506.018 578.072 504.53 577.928C500.498 577.592 497.282 576.56 494.882 574.832C492.53 573.056 491.354 570.464 491.354 567.056V566.624C491.354 564.848 491.738 563.288 492.506 561.944C493.274 560.6 494.282 559.472 495.53 558.56C496.778 557.6 498.218 556.88 499.85 556.4C501.482 555.92 503.162 555.68 504.89 555.68C507.146 555.68 509.09 555.968 510.722 556.544C512.402 557.072 513.818 557.792 514.97 558.704C516.122 559.568 517.058 560.552 517.778 561.656C518.498 562.712 519.05 563.744 519.434 564.752L511.226 568.064C510.794 566.768 510.05 565.76 508.994 565.04C507.938 564.272 506.57 563.888 504.89 563.888C503.354 563.888 502.202 564.176 501.434 564.752C500.666 565.28 500.282 565.952 500.282 566.768Z" fill="black"/>
</g>
<path d="M699 0V1024H701V0H699Z" fill="#EAEDF2" mask="url(#path-1-inside-1_475_242)"/>
<defs>
<clipPath id="clip0_475_242">
<path d="M0 0H700V1024H0V0Z" fill="white"/>
</clipPath>
</defs>
</svg>
