<svg width="32" height="32" viewBox="0 0 32 32" fill="none" xmlns="http://www.w3.org/2000/svg">
<path d="M20 6.66667H5C4.44772 6.66667 4 7.11438 4 7.66667V12.3333C4 12.8856 4.45911 13.3248 4.97935 13.5102C5.8035 13.8038 6.66667 14.5135 6.66667 16C6.66667 17.4865 5.8035 18.1962 4.97935 18.4898C4.45911 18.6752 4 19.1144 4 19.6667V24.3333C4 24.8856 4.44772 25.3333 5 25.3333H20M20 6.66667H27C27.5523 6.66667 28 7.11438 28 7.66667V12.3333C28 12.8856 27.5409 13.3248 27.0206 13.5102C26.1965 13.8038 25.3333 14.5135 25.3333 16C25.3333 17.4865 26.1965 18.1962 27.0206 18.4898C27.5409 18.6752 28 19.1144 28 19.6667V24.3333C28 24.8856 27.5523 25.3333 27 25.3333H20M20 6.66667V8M20 25.3333V24" stroke="black" stroke-width="2" stroke-linecap="round" stroke-linejoin="round"/>
<path d="M20 12.0013L20 12" stroke="black" stroke-width="2" stroke-linecap="round" stroke-linejoin="round"/>
<path d="M20 16.0013L20 16" stroke="black" stroke-width="2" stroke-linecap="round" stroke-linejoin="round"/>
<path d="M20 20.0013L20 20" stroke="black" stroke-width="2" stroke-linecap="round" stroke-linejoin="round"/>
</svg>
