<svg width="32" height="32" viewBox="0 0 32 32" fill="none" xmlns="http://www.w3.org/2000/svg">
<path d="M20 6.66669H5C4.44772 6.66669 4 7.1144 4 7.66669V12.3334C4 12.8856 4.45911 13.3248 4.97935 13.5102C5.8035 13.8039 6.66667 14.5135 6.66667 16C6.66667 17.4865 5.8035 18.1962 4.97935 18.4899C4.45911 18.6753 4 19.1144 4 19.6667V24.3334C4 24.8856 4.44772 25.3334 5 25.3334H20M20 6.66669H27C27.5523 6.66669 28 7.1144 28 7.66669V12.3334C28 12.8856 27.5409 13.3248 27.0206 13.5102C26.1965 13.8039 25.3333 14.5135 25.3333 16C25.3333 17.4865 26.1965 18.1962 27.0206 18.4899C27.5409 18.6753 28 19.1144 28 19.6667V24.3334C28 24.8856 27.5523 25.3334 27 25.3334H20M20 6.66669V8.00002M20 25.3334V24" stroke="#528990" stroke-width="2" stroke-linecap="round" stroke-linejoin="round"/>
<path d="M20 12.0013L20 11.9999" stroke="#528990" stroke-width="2" stroke-linecap="round" stroke-linejoin="round"/>
<path d="M20 16.0013L20 15.9999" stroke="#528990" stroke-width="2" stroke-linecap="round" stroke-linejoin="round"/>
<path d="M20 20.0013L20 19.9999" stroke="#528990" stroke-width="2" stroke-linecap="round" stroke-linejoin="round"/>
</svg>
