<svg width="134" height="21" viewBox="0 0 134 21" fill="none" xmlns="http://www.w3.org/2000/svg">
<path d="M0.664307 16.6915H2.49841V4.24181H0.664307V0.74034H9.19568C10.122 0.74034 10.9371 0.870026 11.6411 1.12939C12.3637 1.38876 12.9658 1.74076 13.4475 2.18539C13.9477 2.63003 14.3182 3.16729 14.559 3.79718C14.8184 4.40855 14.9481 5.0755 14.9481 5.79802V6.1315C14.9481 7.24308 14.6331 8.13234 14.0033 8.79929C13.3919 9.46624 12.6138 9.92939 11.6689 10.1888V10.689C12.6138 10.9483 13.3919 11.4208 14.0033 12.1062C14.6331 12.7732 14.9481 13.6624 14.9481 14.774V15.1075C14.9481 15.83 14.8184 16.5062 14.559 17.1361C14.3182 17.7475 13.9477 18.2848 13.4475 18.7479C12.9658 19.1925 12.3637 19.5445 11.6411 19.8039C10.9371 20.0633 10.122 20.193 9.19568 20.193H0.664307V16.6915ZM6.16662 16.6915H8.83441C9.61252 16.6915 10.2424 16.5248 10.7241 16.1913C11.2058 15.8578 11.4466 15.302 11.4466 14.5239V14.3572C11.4466 13.5791 11.2058 13.0233 10.7241 12.6898C10.2424 12.3563 9.61252 12.1896 8.83441 12.1896H6.16662V16.6915ZM6.16662 8.68813H8.83441C9.61252 8.68813 10.2424 8.53066 10.7241 8.21571C11.2058 7.88223 11.4466 7.32645 11.4466 6.54834V6.3816C11.4466 5.6035 11.2058 5.05697 10.7241 4.74202C10.2424 4.40855 9.61252 4.24181 8.83441 4.24181H6.16662V8.68813ZM21.6539 14.4406C21.6724 14.8481 21.765 15.2279 21.9317 15.5799C22.117 15.9134 22.3578 16.2098 22.6543 16.4692C22.9692 16.71 23.3212 16.9046 23.7103 17.0528C24.1179 17.1824 24.544 17.2473 24.9886 17.2473C25.8593 17.2473 26.5263 17.0991 26.9894 16.8027C27.4526 16.4877 27.7861 16.1172 27.9899 15.6911L30.9911 17.3584C30.8244 17.7104 30.5928 18.081 30.2964 18.47C30 18.8406 29.6109 19.1833 29.1292 19.4982C28.6661 19.8132 28.0917 20.0726 27.4063 20.2763C26.7393 20.4801 25.952 20.582 25.0442 20.582C24.0067 20.582 23.0619 20.4153 22.2096 20.0818C21.3574 19.7483 20.6164 19.2667 19.9865 18.6368C19.3751 18.0069 18.8934 17.238 18.5414 16.3302C18.208 15.4224 18.0412 14.3942 18.0412 13.2456V13.0789C18.0412 12.0229 18.2172 11.0595 18.5692 10.1888C18.9397 9.31803 19.44 8.57697 20.0698 7.9656C20.6997 7.35424 21.4315 6.88181 22.2652 6.54834C23.1174 6.19634 24.0252 6.02034 24.9886 6.02034C26.1743 6.02034 27.1932 6.23339 28.0454 6.6595C28.8976 7.06708 29.6016 7.59508 30.1574 8.2435C30.7132 8.87339 31.1208 9.57739 31.3802 10.3555C31.6395 11.1151 31.7692 11.8561 31.7692 12.5787V14.4406H21.6539ZM24.9608 9.18834C24.0715 9.18834 23.349 9.41992 22.7932 9.88308C22.2374 10.3277 21.8762 10.8464 21.7094 11.4393H28.2122C28.101 10.7909 27.749 10.2536 27.1562 9.8275C26.5819 9.40139 25.8501 9.18834 24.9608 9.18834ZM49.0906 13.4679C49.0906 14.6165 48.896 15.6355 48.507 16.5248C48.1179 17.3955 47.5899 18.1365 46.923 18.7479C46.256 19.3408 45.4872 19.7947 44.6164 20.1096C43.7642 20.4245 42.8657 20.582 41.9209 20.582C40.976 20.582 40.0682 20.4245 39.1975 20.1096C38.3453 19.7947 37.5857 19.3408 36.9188 18.7479C36.2518 18.1365 35.7238 17.3955 35.3348 16.5248C34.9457 15.6355 34.7512 14.6165 34.7512 13.4679V13.1344C34.7512 12.0043 34.9457 11.0039 35.3348 10.1332C35.7238 9.24392 36.2518 8.4936 36.9188 7.88224C37.5857 7.27087 38.3453 6.80771 39.1975 6.49276C40.0682 6.17781 40.976 6.02034 41.9209 6.02034C42.8657 6.02034 43.7642 6.17781 44.6164 6.49276C45.4872 6.80771 46.256 7.27087 46.923 7.88224C47.5899 8.4936 48.1179 9.24392 48.507 10.1332C48.896 11.0039 49.0906 12.0043 49.0906 13.1344V13.4679ZM41.9209 17.2473C42.4211 17.2473 42.8935 17.1639 43.3381 16.9972C43.7828 16.8304 44.1718 16.5896 44.5053 16.2747C44.8388 15.9597 45.0981 15.5799 45.2834 15.1353C45.4872 14.6721 45.5891 14.1534 45.5891 13.5791V13.0233C45.5891 12.449 45.4872 11.9395 45.2834 11.4949C45.0981 11.0317 44.8388 10.6427 44.5053 10.3277C44.1718 10.0128 43.7828 9.77192 43.3381 9.60518C42.8935 9.43845 42.4211 9.35508 41.9209 9.35508C41.4207 9.35508 40.9482 9.43845 40.5036 9.60518C40.059 9.77192 39.6699 10.0128 39.3364 10.3277C39.003 10.6427 38.7343 11.0317 38.5306 11.4949C38.3453 11.9395 38.2527 12.449 38.2527 13.0233V13.5791C38.2527 14.1534 38.3453 14.6721 38.5306 15.1353C38.7343 15.5799 39.003 15.9597 39.3364 16.2747C39.6699 16.5896 40.059 16.8304 40.5036 16.9972C40.9482 17.1639 41.4207 17.2473 41.9209 17.2473ZM62.2713 6.68729C62.2713 5.90918 61.9656 5.23297 61.3542 4.65866C60.7614 4.08434 59.9184 3.79718 58.8254 3.79718C57.899 3.79718 57.1673 3.99171 56.63 4.38076C56.0927 4.75129 55.8241 5.26076 55.8241 5.90918C55.8241 6.24266 55.8889 6.54834 56.0186 6.82624C56.1483 7.0856 56.3706 7.32645 56.6856 7.54876C57.019 7.75255 57.4451 7.93781 57.9639 8.10455C58.5011 8.27129 59.1774 8.42876 59.9925 8.57697C62.0304 8.9475 63.5866 9.56813 64.6612 10.4389C65.7357 11.3096 66.2729 12.5972 66.2729 14.3016V14.6351C66.2729 15.5429 66.1062 16.3673 65.7727 17.1083C65.4578 17.8309 64.9946 18.4515 64.3833 18.9702C63.7719 19.489 63.0308 19.8873 62.1601 20.1652C61.2894 20.4431 60.3075 20.582 59.2144 20.582C57.9361 20.582 56.806 20.406 55.8241 20.054C54.8607 19.6835 54.0548 19.1833 53.4064 18.5534C52.758 17.905 52.267 17.1547 51.9336 16.3024C51.6001 15.4317 51.4334 14.4869 51.4334 13.4679V12.6342H55.1016V13.3012C55.1016 14.4683 55.435 15.4039 56.102 16.1079C56.7875 16.7934 57.8435 17.1361 59.27 17.1361C60.3816 17.1361 61.206 16.8953 61.7433 16.4136C62.2805 15.9319 62.5491 15.3576 62.5491 14.6907C62.5491 14.3757 62.4936 14.0793 62.3824 13.8014C62.2712 13.505 62.0767 13.2456 61.7988 13.0233C61.5209 12.7824 61.1411 12.5694 60.6595 12.3841C60.1778 12.1989 59.5664 12.0414 58.8254 11.9117C57.8435 11.745 56.9449 11.5319 56.1298 11.2726C55.3146 10.9947 54.6014 10.6334 53.99 10.1888C53.3971 9.74413 52.934 9.18834 52.6005 8.52139C52.267 7.85444 52.1003 7.03929 52.1003 6.07592V5.90918C52.1003 5.11255 52.2578 4.38076 52.5727 3.71381C52.9062 3.02834 53.3601 2.4355 53.9344 1.93529C54.5272 1.43508 55.2313 1.04603 56.0464 0.768131C56.8801 0.490236 57.8064 0.351288 58.8254 0.351288C59.974 0.351288 60.9929 0.518025 61.8822 0.851499C62.7715 1.16645 63.5125 1.60181 64.1054 2.1576C64.7167 2.71339 65.1706 3.35255 65.467 4.07508C65.782 4.7976 65.9395 5.55718 65.9395 6.35381V7.35424H62.2713V6.68729ZM72.7008 14.4406C72.7193 14.8481 72.812 15.2279 72.9787 15.5799C73.164 15.9134 73.4048 16.2098 73.7012 16.4692C74.0162 16.71 74.3682 16.9046 74.7572 17.0528C75.1648 17.1824 75.5909 17.2473 76.0355 17.2473C76.9063 17.2473 77.5732 17.0991 78.0364 16.8027C78.4995 16.4877 78.833 16.1172 79.0368 15.6911L82.0381 17.3584C81.8713 17.7104 81.6397 18.081 81.3433 18.47C81.0469 18.8406 80.6579 19.1833 80.1762 19.4982C79.713 19.8132 79.1387 20.0726 78.4532 20.2763C77.7863 20.4801 76.9989 20.582 76.0911 20.582C75.0536 20.582 74.1088 20.4153 73.2566 20.0818C72.4044 19.7483 71.6633 19.2667 71.0334 18.6368C70.4221 18.0069 69.9404 17.238 69.5884 16.3302C69.2549 15.4224 69.0882 14.3942 69.0882 13.2456V13.0789C69.0882 12.0229 69.2642 11.0595 69.6162 10.1888C69.9867 9.31803 70.4869 8.57697 71.1168 7.9656C71.7467 7.35424 72.4785 6.88181 73.3122 6.54834C74.1644 6.19634 75.0722 6.02034 76.0355 6.02034C77.2212 6.02034 78.2402 6.23339 79.0924 6.6595C79.9446 7.06708 80.6486 7.59508 81.2044 8.2435C81.7602 8.87339 82.1677 9.57739 82.4271 10.3555C82.6865 11.1151 82.8162 11.8561 82.8162 12.5787V14.4406H72.7008ZM76.0077 9.18834C75.1185 9.18834 74.396 9.41992 73.8402 9.88308C73.2844 10.3277 72.9231 10.8464 72.7564 11.4393H79.2591C79.148 10.7909 78.796 10.2536 78.2031 9.8275C77.6288 9.40139 76.897 9.18834 76.0077 9.18834ZM95.5522 18.1921C95.1817 19.0629 94.663 19.6835 93.996 20.054C93.3291 20.406 92.551 20.582 91.6617 20.582C90.828 20.582 90.0407 20.4245 89.2996 20.1096C88.5771 19.7947 87.9379 19.3315 87.3821 18.7201C86.8263 18.1088 86.3817 17.3677 86.0482 16.497C85.7333 15.6262 85.5758 14.6351 85.5758 13.5235V13.0789C85.5758 11.9858 85.7333 11.0039 86.0482 10.1332C86.3632 9.26245 86.7893 8.52139 87.3266 7.91002C87.8638 7.29866 88.4845 6.8355 89.1885 6.52055C89.911 6.18708 90.6798 6.02034 91.495 6.02034C92.4769 6.02034 93.2642 6.18708 93.8571 6.52055C94.4684 6.85402 94.9501 7.37276 95.3021 8.07676H95.8023V6.40939H99.3038V16.0245C99.3038 16.5803 99.5539 16.8582 100.054 16.8582H100.582V20.193H98.1922C97.5623 20.193 97.0436 20.0077 96.636 19.6372C96.247 19.2667 96.0525 18.785 96.0525 18.1921H95.5522ZM92.4398 17.2473C93.4588 17.2473 94.2739 16.9138 94.8853 16.2469C95.4967 15.5614 95.8023 14.6351 95.8023 13.4679V13.1344C95.8023 11.9673 95.4967 11.0502 94.8853 10.3833C94.2739 9.69781 93.4588 9.35508 92.4398 9.35508C91.4209 9.35508 90.6057 9.69781 89.9943 10.3833C89.383 11.0502 89.0773 11.9673 89.0773 13.1344V13.4679C89.0773 14.6351 89.383 15.5614 89.9943 16.2469C90.6057 16.9138 91.4209 17.2473 92.4398 17.2473ZM103.258 6.40939H107.343V0.74034H110.845V6.40939H115.819V9.74413H110.845V16.0245C110.845 16.5803 111.095 16.8582 111.595 16.8582H115.319V20.193H109.483C108.853 20.193 108.335 19.9892 107.927 19.5816C107.538 19.174 107.343 18.6553 107.343 18.0254V9.74413H103.258V6.40939ZM125.054 10.2999C125.054 10.7446 125.285 11.0688 125.749 11.2726C126.212 11.4578 127.055 11.6153 128.277 11.745C129.685 11.8932 130.834 12.3193 131.723 13.0233C132.613 13.7088 133.057 14.6721 133.057 15.9134V16.0801C133.057 17.4511 132.557 18.5441 131.557 19.3593C130.556 20.1744 129.148 20.582 127.333 20.582C126.258 20.582 125.341 20.4431 124.581 20.1652C123.822 19.8873 123.192 19.5445 122.692 19.137C122.192 18.7109 121.802 18.2477 121.525 17.7475C121.265 17.2288 121.089 16.7286 120.997 16.2469L124.22 15.1909C124.368 15.7837 124.674 16.3024 125.137 16.7471C125.619 17.1917 126.351 17.414 127.333 17.414C128.203 17.414 128.796 17.2843 129.111 17.025C129.445 16.7471 129.611 16.4507 129.611 16.1357C129.611 15.9504 129.565 15.7837 129.472 15.6355C129.398 15.4688 129.25 15.3206 129.028 15.1909C128.805 15.0427 128.5 14.9222 128.111 14.8296C127.74 14.737 127.268 14.6629 126.693 14.6073C125.137 14.4776 123.896 14.0793 122.97 13.4123C122.062 12.7269 121.608 11.7264 121.608 10.4111V10.2443C121.608 9.55887 121.756 8.95676 122.053 8.43802C122.349 7.91929 122.738 7.48392 123.22 7.13192C123.701 6.76139 124.257 6.4835 124.887 6.29824C125.517 6.11297 126.165 6.02034 126.832 6.02034C127.703 6.02034 128.453 6.1315 129.083 6.35381C129.732 6.5576 130.278 6.8355 130.723 7.1875C131.168 7.52097 131.529 7.90076 131.807 8.32687C132.085 8.73445 132.298 9.13276 132.446 9.52181L129.278 10.8001C129.111 10.2999 128.824 9.91087 128.416 9.63297C128.009 9.33655 127.481 9.18834 126.832 9.18834C126.24 9.18834 125.795 9.2995 125.498 9.52181C125.202 9.7256 125.054 9.98497 125.054 10.2999Z" fill="black"/>
</svg>
